<svg width="22" height="22" viewBox="0 0 22 22" fill="none" xmlns="http://www.w3.org/2000/svg">
<path d="M6.58325 17.9997C7.50419 17.9997 8.25024 18.7457 8.25024 19.6667C8.25024 20.5876 7.50419 21.3336 6.58325 21.3336C5.66557 21.3336 4.927 20.5909 4.927 19.6667C4.927 18.7424 5.66557 17.9997 6.58325 17.9997ZM17.4163 17.9997C18.3372 17.9997 19.0833 18.7457 19.0833 19.6667C19.0833 20.5876 18.3372 21.3336 17.4163 21.3336C16.4987 21.3335 15.761 20.5908 15.761 19.6667C15.761 18.7426 16.4987 17.9998 17.4163 17.9997ZM3.30396 0.666656L4.19751 2.54752L4.33325 2.83365H20.6663C20.9876 2.83365 21.2502 3.09318 21.2502 3.41666C21.2502 3.52045 21.2227 3.61316 21.1799 3.68814L21.177 3.69498L17.3059 10.7233C17.0164 11.2393 16.4689 11.5836 15.8459 11.5836H7.47876L7.33618 11.8424L6.36743 13.6081C6.31759 13.6975 6.28961 13.7914 6.27856 13.8844L6.27271 13.9792L6.27661 14.0583C6.31582 14.4483 6.64233 14.7494 7.04321 14.7497H19.0833V15.9167H6.58325C5.66231 15.9167 4.91626 15.1706 4.91626 14.2497C4.91631 13.9609 4.99023 13.6914 5.12036 13.446L6.58228 10.7917L6.7063 10.568L6.59595 10.3366L2.70142 2.1188L2.56665 1.83365H0.583252V0.666656H3.30396Z" fill="#69306D" stroke="#69306D"/>
</svg>
